<svg version="1.1" id="Layer_1" xmlns="http://www.w3.org/2000/svg" xmlns:xlink="http://www.w3.org/1999/xlink" x="0px" y="0px"
	 width="100%" viewBox="0 0 518 301" enable-background="new 0 0 518 301" xml:space="preserve">
<path fill="#000000" opacity="1.000000" stroke="none" 
	d="
M394.000000,302.000000 
	C321.645782,302.000000 249.291550,302.000000 176.413177,301.594116 
	C176.560608,300.805145 177.198563,300.170990 177.908676,300.076019 
	C193.403458,298.002747 208.096802,293.227417 222.068512,286.392395 
	C246.998413,274.196564 266.752808,256.112122 282.113129,233.025589 
	C284.545715,229.369415 283.656525,227.405777 280.667145,225.340195 
	C269.318512,217.498535 257.700195,210.014160 246.720871,201.686691 
	C242.054184,198.147156 239.482071,199.865982 236.507111,203.046616 
	C234.478409,205.215591 232.535873,207.483810 230.738541,209.847382 
	C221.541550,221.941788 209.722305,231.054337 196.337631,237.680710 
	C175.479172,248.007126 153.133789,250.028275 130.620529,244.821259 
	C100.055855,237.752029 79.554504,218.525330 68.288452,189.468201 
	C61.245487,171.303146 60.250916,152.353378 63.084145,133.298141 
	C66.377373,111.149101 75.277985,91.691299 92.675606,76.800903 
	C116.101379,56.751095 143.071747,51.498508 172.690674,57.873478 
	C197.994125,63.319614 216.420547,78.609612 230.863419,99.365982 
	C234.816391,105.046944 236.858353,105.456001 242.622528,101.914597 
	C255.678802,93.893051 268.802612,85.981476 281.882294,77.997864 
	C282.662750,77.521484 283.296417,76.804649 283.995819,76.201950 
	C273.412292,58.778984 260.427185,44.025208 244.430450,31.837322 
	C224.637772,16.757328 202.653214,6.957829 178.092560,2.901664 
	C177.311646,2.772698 176.693848,1.656155 176.000000,1.000000 
	C247.354233,1.000000 318.708466,1.000000 390.596863,1.397791 
	C390.296295,2.193363 389.493713,2.690063 388.621826,2.973488 
	C380.664551,5.560158 372.357605,7.366755 364.791168,10.805791 
	C339.473450,22.313021 322.140045,41.912872 310.079163,66.600426 
	C308.520447,69.790962 309.400513,71.224968 312.316254,72.775658 
	C320.903442,77.342628 329.307739,82.251862 337.845276,86.914291 
	C343.745148,90.136269 349.747223,93.171127 356.145050,96.520706 
	C357.931152,93.004166 359.174988,89.743912 361.093689,86.946541 
	C365.092285,81.116898 368.708893,74.738327 373.799103,69.999580 
	C387.556335,57.192207 403.819885,51.046249 422.876648,55.032326 
	C450.011353,60.708046 460.890076,86.428177 446.434265,109.080528 
	C438.560120,121.419327 426.283630,126.346962 412.285492,126.890045 
	C399.147003,127.399773 385.973175,126.990479 372.814972,127.011749 
	C371.041687,127.014610 369.268677,127.170334 367.001526,127.278938 
	C367.001526,135.184784 367.001526,142.643997 367.001526,150.103226 
	C367.001526,157.543518 367.001526,164.983795 367.001526,172.999863 
	C369.606262,172.999863 371.564362,172.965515 373.520935,173.005310 
	C389.292328,173.326004 405.089844,173.212021 420.825867,174.139069 
	C432.508698,174.827332 442.726288,179.584167 450.421753,188.893280 
	C465.426819,207.044724 460.120911,234.939148 437.627686,244.520447 
	C411.210144,255.773361 383.312256,246.955612 366.889313,223.496292 
	C362.857971,217.737747 359.686096,211.377563 355.985168,205.065628 
	C345.062561,211.792267 334.030487,218.338623 323.286682,225.328033 
	C319.147797,228.020584 315.664368,231.720627 311.665039,235.191315 
	C312.931122,238.298111 314.414429,241.175201 315.952515,244.375046 
	C316.393829,245.464798 316.780396,246.231796 317.233643,247.334015 
	C319.519470,250.817612 321.738617,253.965988 324.107056,257.417114 
	C327.148102,261.289185 329.765472,265.129517 332.977844,268.382263 
	C349.359772,284.970093 368.904022,295.777588 391.932770,300.092224 
	C392.713562,300.238525 393.314972,301.342438 394.000000,302.000000 
M278.674866,135.112915 
	C284.715637,131.433319 290.726410,127.703354 296.803833,124.085365 
	C307.185883,117.904755 307.298523,117.883537 301.795502,107.564613 
	C298.421265,101.237396 294.701630,95.094368 291.067413,88.746841 
	C289.855042,89.263802 289.057434,89.485916 288.385345,89.907921 
	C275.023621,98.297745 261.806702,106.929283 248.257446,115.003426 
	C243.342087,117.932533 244.233978,120.984047 246.333725,124.684647 
	C249.906982,130.982117 253.556641,137.236923 257.237427,143.472321 
	C258.615051,145.806107 260.456146,146.651901 263.029144,144.991714 
	C268.005035,141.781067 273.043121,138.666840 278.674866,135.112915 
M340.064392,198.504700 
	C342.054199,197.336761 343.941223,195.914734 346.057159,195.058502 
	C349.502258,193.664444 349.509979,191.545288 347.915955,188.810562 
	C344.928040,183.684509 342.003265,178.519882 338.918335,173.452820 
	C336.982819,170.273636 335.249054,165.288620 332.609772,164.686569 
	C329.881622,164.064240 326.104797,167.660110 322.896088,169.592361 
	C311.891113,176.219467 300.877808,182.837387 290.029053,189.713440 
	C288.651337,190.586655 287.040283,193.628510 287.550903,194.550598 
	C292.477203,203.446472 297.834900,212.103424 303.294891,221.204834 
	C315.667389,213.616211 327.590363,206.303299 340.064392,198.504700 
z"/>
<path fill="#008763" opacity="1.000000" stroke="none" 
	d="
M175.531342,1.000000 
	C176.693848,1.656155 177.311646,2.772698 178.092560,2.901664 
	C202.653214,6.957829 224.637772,16.757328 244.430450,31.837322 
	C260.427185,44.025208 273.412292,58.778984 283.995819,76.201950 
	C283.296417,76.804649 282.662750,77.521484 281.882294,77.997864 
	C268.802612,85.981476 255.678802,93.893051 242.622528,101.914597 
	C236.858353,105.456001 234.816391,105.046944 230.863419,99.365982 
	C216.420547,78.609612 197.994125,63.319614 172.690674,57.873478 
	C143.071747,51.498508 116.101379,56.751095 92.675606,76.800903 
	C75.277985,91.691299 66.377373,111.149101 63.084145,133.298141 
	C60.250916,152.353378 61.245487,171.303146 68.288452,189.468201 
	C79.554504,218.525330 100.055855,237.752029 130.620529,244.821259 
	C153.133789,250.028275 175.479172,248.007126 196.337631,237.680710 
	C209.722305,231.054337 221.541550,221.941788 230.738541,209.847382 
	C232.535873,207.483810 234.478409,205.215591 236.507111,203.046616 
	C239.482071,199.865982 242.054184,198.147156 246.720871,201.686691 
	C257.700195,210.014160 269.318512,217.498535 280.667145,225.340195 
	C283.656525,227.405777 284.545715,229.369415 282.113129,233.025589 
	C266.752808,256.112122 246.998413,274.196564 222.068512,286.392395 
	C208.096802,293.227417 193.403458,298.002747 177.908676,300.076019 
	C177.198563,300.170990 176.560608,300.805145 175.944519,301.594116 
	C160.979111,302.000000 145.958206,302.000000 130.524139,301.594055 
	C127.334534,300.463013 124.588638,299.579498 121.776924,299.037445 
	C95.503868,293.972595 71.936974,282.968933 51.965981,265.269684 
	C24.576029,240.995407 7.837430,210.645813 2.897371,174.098160 
	C2.793185,173.327362 1.655533,172.696274 1.000000,172.000000 
	C1.000000,158.312439 1.000000,144.624878 1.407105,130.523193 
	C2.208210,129.105484 2.814182,128.132645 2.964862,127.093773 
	C5.884661,106.963043 12.631158,88.206718 23.078993,70.770088 
	C34.012741,52.522530 48.517986,37.533367 66.035995,25.701740 
	C83.406631,13.969652 102.649651,6.412586 123.414368,2.922868 
	C124.357330,2.764393 125.141747,1.662491 126.000000,1.000002 
	C142.354233,1.000000 158.708450,1.000000 175.531342,1.000000 
z"/>
<path fill="#008763" opacity="1.000000" stroke="none" 
	d="
M311.882294,234.961609 
	C315.664368,231.720627 319.147797,228.020584 323.286682,225.328033 
	C334.030487,218.338623 345.062561,211.792267 355.985168,205.065628 
	C359.686096,211.377563 362.857971,217.737747 366.889313,223.496292 
	C383.312256,246.955612 411.210144,255.773361 437.627686,244.520447 
	C460.120911,234.939148 465.426819,207.044724 450.421753,188.893280 
	C442.726288,179.584167 432.508698,174.827332 420.825867,174.139069 
	C405.089844,173.212021 389.292328,173.326004 373.520935,173.005310 
	C371.564362,172.965515 369.606262,172.999863 367.001526,172.999863 
	C367.001526,164.983795 367.001526,157.543518 367.001526,150.103226 
	C367.001526,142.643997 367.001526,135.184784 367.001526,127.278938 
	C369.268677,127.170334 371.041687,127.014610 372.814972,127.011749 
	C385.973175,126.990479 399.147003,127.399773 412.285492,126.890045 
	C426.283630,126.346962 438.560120,121.419327 446.434265,109.080528 
	C460.890076,86.428177 450.011353,60.708046 422.876648,55.032326 
	C403.819885,51.046249 387.556335,57.192207 373.799103,69.999580 
	C368.708893,74.738327 365.092285,81.116898 361.093689,86.946541 
	C359.174988,89.743912 357.931152,93.004166 356.145050,96.520706 
	C349.747223,93.171127 343.745148,90.136269 337.845276,86.914291 
	C329.307739,82.251862 320.903442,77.342628 312.316254,72.775658 
	C309.400513,71.224968 308.520447,69.790962 310.079163,66.600426 
	C322.140045,41.912872 339.473450,22.313021 364.791168,10.805791 
	C372.357605,7.366755 380.664551,5.560158 388.621826,2.973488 
	C389.493713,2.690063 390.296295,2.193363 391.065491,1.397791 
	C405.020905,1.000000 419.041779,1.000000 433.465637,1.397782 
	C434.370789,2.164388 434.829529,2.764105 435.381653,2.868201 
	C448.571625,5.354882 461.182098,9.457458 472.760437,16.365551 
	C494.320282,29.228966 508.158112,47.437527 512.130188,72.696068 
	C515.822693,96.177223 509.766846,116.532730 492.984039,133.357895 
	C487.452667,138.903214 481.001495,143.531036 475.067261,148.497772 
	C496.375275,158.211517 510.455109,174.610535 517.116333,197.442856 
	C517.305115,198.090027 518.352783,198.486588 519.000000,199.000000 
	C519.000000,209.687561 519.000000,220.375122 518.611267,231.455856 
	C517.809265,232.677582 517.206238,233.463806 517.010620,234.340912 
	C512.954712,252.526001 502.734985,266.947388 488.670624,278.500732 
	C474.577911,290.077332 457.953217,296.651703 440.072388,300.092377 
	C439.288269,300.243286 438.686646,301.342499 438.000000,302.000000 
	C423.645782,302.000000 409.291534,302.000000 394.468658,302.000000 
	C393.314972,301.342438 392.713562,300.238525 391.932770,300.092224 
	C368.904022,295.777588 349.359772,284.970093 332.977844,268.382263 
	C329.765472,265.129517 327.148102,261.289185 324.045654,257.045746 
	C322.871002,252.351883 321.563110,248.576813 317.166931,246.998779 
	C316.780396,246.231796 316.393829,245.464798 316.010101,244.079041 
	C314.636017,240.627380 313.259155,237.794495 311.882294,234.961609 
z"/>
<path fill="#000000" opacity="1.000000" stroke="none" 
	d="
M1.000000,172.468658 
	C1.655533,172.696274 2.793185,173.327362 2.897371,174.098160 
	C7.837430,210.645813 24.576029,240.995407 51.965981,265.269684 
	C71.936974,282.968933 95.503868,293.972595 121.776924,299.037445 
	C124.588638,299.579498 127.334534,300.463013 130.055481,301.594055 
	C87.072739,302.000000 44.145470,302.000000 1.000000,302.000000 
	C1.000000,258.979340 1.000000,215.958328 1.000000,172.468658 
z"/>
<path fill="#000000" opacity="1.000000" stroke="none" 
	d="
M125.531342,1.000002 
	C125.141747,1.662491 124.357330,2.764393 123.414368,2.922868 
	C102.649651,6.412586 83.406631,13.969652 66.035995,25.701740 
	C48.517986,37.533367 34.012741,52.522530 23.078993,70.770088 
	C12.631158,88.206718 5.884661,106.963043 2.964862,127.093773 
	C2.814182,128.132645 2.208210,129.105484 1.407105,130.054535 
	C1.000000,87.074173 1.000000,44.148350 1.000000,1.000000 
	C42.353962,1.000000 83.708321,1.000000 125.531342,1.000002 
z"/>
<path fill="#000000" opacity="1.000000" stroke="none" 
	d="
M519.000000,198.531342 
	C518.352783,198.486588 517.305115,198.090027 517.116333,197.442856 
	C510.455109,174.610535 496.375275,158.211517 475.067261,148.497772 
	C481.001495,143.531036 487.452667,138.903214 492.984039,133.357895 
	C509.766846,116.532730 515.822693,96.177223 512.130188,72.696068 
	C508.158112,47.437527 494.320282,29.228966 472.760437,16.365551 
	C461.182098,9.457458 448.571625,5.354882 435.381653,2.868201 
	C434.829529,2.764105 434.370789,2.164388 433.934265,1.397782 
	C462.289459,1.000000 490.578949,1.000000 519.000000,1.000000 
	C519.000000,66.687508 519.000000,132.375092 519.000000,198.531342 
z"/>
<path fill="#000000" opacity="1.000000" stroke="none" 
	d="
M438.468658,302.000000 
	C438.686646,301.342499 439.288269,300.243286 440.072388,300.092377 
	C457.953217,296.651703 474.577911,290.077332 488.670624,278.500732 
	C502.734985,266.947388 512.954712,252.526001 517.010620,234.340912 
	C517.206238,233.463806 517.809265,232.677582 518.611267,231.924515 
	C519.000000,255.265533 519.000000,278.531067 519.000000,302.000000 
	C492.312775,302.000000 465.625061,302.000000 438.468658,302.000000 
z"/>
<path fill="#008763" opacity="1.000000" stroke="none" 
	d="
M278.365173,135.312790 
	C273.043121,138.666840 268.005035,141.781067 263.029144,144.991714 
	C260.456146,146.651901 258.615051,145.806107 257.237427,143.472321 
	C253.556641,137.236923 249.906982,130.982117 246.333725,124.684647 
	C244.233978,120.984047 243.342087,117.932533 248.257446,115.003426 
	C261.806702,106.929283 275.023621,98.297745 288.385345,89.907921 
	C289.057434,89.485916 289.855042,89.263802 291.067413,88.746841 
	C294.701630,95.094368 298.421265,101.237396 301.795502,107.564613 
	C307.298523,117.883537 307.185883,117.904755 296.803833,124.085365 
	C290.726410,127.703354 284.715637,131.433319 278.365173,135.312790 
z"/>
<path fill="#008763" opacity="1.000000" stroke="none" 
	d="
M339.788879,198.747543 
	C327.590363,206.303299 315.667389,213.616211 303.294891,221.204834 
	C297.834900,212.103424 292.477203,203.446472 287.550903,194.550598 
	C287.040283,193.628510 288.651337,190.586655 290.029053,189.713440 
	C300.877808,182.837387 311.891113,176.219467 322.896088,169.592361 
	C326.104797,167.660110 329.881622,164.064240 332.609772,164.686569 
	C335.249054,165.288620 336.982819,170.273636 338.918335,173.452820 
	C342.003265,178.519882 344.928040,183.684509 347.915955,188.810562 
	C349.509979,191.545288 349.502258,193.664444 346.057159,195.058502 
	C343.941223,195.914734 342.054199,197.336761 339.788879,198.747543 
z"/>
<path fill="#008763" opacity="1.000000" stroke="none" 
	d="
M317.233643,247.334015 
	C321.563110,248.576813 322.871002,252.351883 323.896362,256.743011 
	C321.738617,253.965988 319.519470,250.817612 317.233643,247.334015 
z"/>
<path fill="#008763" opacity="1.000000" stroke="none" 
	d="
M311.665039,235.191315 
	C313.259155,237.794495 314.636017,240.627380 315.955322,243.756287 
	C314.414429,241.175201 312.931122,238.298111 311.665039,235.191315 
z"/>
</svg>